<?xml version="1.0" encoding="UTF-8" standalone="no"?>
<!-- Created with Inkscape (http://www.inkscape.org/) -->

<svg
   width="4412.605"
   height="1975.3346"
   viewBox="0 0 1167.5017 522.64062"
   version="1.1"
   id="svg5"
   inkscape:version="1.1.2 (b8e25be833, 2022-02-05)"
   sodipodi:docname="logoblack.svg"
   xmlns:inkscape="http://www.inkscape.org/namespaces/inkscape"
   xmlns:sodipodi="http://sodipodi.sourceforge.net/DTD/sodipodi-0.dtd"
   xmlns="http://www.w3.org/2000/svg"
   xmlns:svg="http://www.w3.org/2000/svg">
  <sodipodi:namedview
     id="namedview7"
     pagecolor="#505050"
     bordercolor="#ffffff"
     borderopacity="1"
     inkscape:pageshadow="0"
     inkscape:pageopacity="0"
     inkscape:pagecheckerboard="1"
     inkscape:document-units="mm"
     showgrid="false"
     units="px"
     width="5000px"
     inkscape:zoom="0.13748183"
     inkscape:cx="4927.9239"
     inkscape:cy="1116.5112"
     inkscape:window-width="2048"
     inkscape:window-height="1090"
     inkscape:window-x="-6"
     inkscape:window-y="-6"
     inkscape:window-maximized="1"
     inkscape:current-layer="text2399"
     fit-margin-top="0"
     fit-margin-left="0"
     fit-margin-right="0"
     fit-margin-bottom="0" />
  <defs
     id="defs2">
    <rect
       x="400.05289"
       y="2094.8223"
       width="7586.4575"
       height="2647.6228"
       id="rect3415" />
  </defs>
  <g
     inkscape:label="Layer 1"
     inkscape:groupmode="layer"
     id="layer1"
     transform="translate(-77.70749,-400.13803)">
    <g
       id="g25512"
       transform="translate(0,145.5523)">
      <g
         id="g27515"
         style="fill:#000000;fill-opacity:1">
        <path
           style="fill:#000000;fill-opacity:1;stroke-width:0.291905"
           d="m 351.01847,613.2966 c -27.19462,-0.62266 -54.6604,-3.78506 -78.66839,-9.05745 -14.6732,-3.22228 -31.76584,-10.19963 -45.89535,-18.73475 -18.64435,-11.26228 -34.76862,-26.83835 -44.9607,-43.43209 -12.55098,-20.43422 -32.0937,-83.86095 -49.84552,-161.77587 -1.14599,-5.02984 -2.40262,-9.99277 -2.79249,-11.02853 -3.59363,-9.54739 -10.2054,-16.216 -19.18799,-19.35306 -4.02947,-1.40718 -8.01364,-2.11692 -12.179554,-2.16946 l -3.659313,-0.0414 -8.000474,-35.46646 c -4.400262,-19.50656 -8.048715,-35.66836 -8.10767,-35.91525 -0.113774,-0.47682 0.142528,-0.5306 15.253442,-3.24142 98.959719,-17.75206 206.960229,-22.84737 311.462619,-14.69453 69.35257,5.41057 140.91334,17.13074 192.57308,31.5396 17.04863,4.75523 32.2842,8.05023 45.18356,9.77194 5.70483,0.76125 23.62838,1.10837 31.52574,0.61024 12.62402,-0.79641 30.46451,-4.32899 51.54869,-10.20718 27.15806,-7.57166 61.55277,-14.80365 97.3228,-20.46349 81.74031,-12.93383 167.55363,-17.6057 252.20595,-13.73077 44.1627,2.02156 89.341,6.59331 132.8167,13.44013 11.9444,1.88109 37.2813,6.29697 37.595,6.55245 0.052,0.0414 -3.4749,15.8814 -7.826,35.20726 -4.3511,19.32596 -7.9789,35.46667 -8.0615,35.86839 -0.15,0.72609 -0.1686,0.73022 -3.5583,0.76539 -7.3788,0.0724 -14.2731,2.14381 -19.9789,5.9932 -2.6272,1.7725 -6.531,5.8966 -8.3496,8.821 -2.6687,4.29114 -3.658,7.16859 -6.0203,17.51127 -15.6743,68.62269 -31.9952,123.97457 -45.0566,152.8081 -7.0942,15.66079 -21.0904,32.14281 -37.8455,44.56725 -11.3281,8.40014 -22.946,14.8111 -36.4881,20.13489 -11.6258,4.5703 -20.1746,6.82996 -36.406,9.62259 -35.0899,6.03737 -72.0499,7.67282 -105.3139,4.66029 -26.88821,-2.43518 -52.54962,-8.0372 -74.93321,-16.35843 -7.13073,-2.65083 -13.71877,-5.4808 -22.12511,-9.50406 -4.01374,-1.92092 -8.60008,-4.10796 -10.19188,-4.86011 -10.01583,-4.73248 -23.67368,-16.4058 -35.96024,-30.73543 -19.36888,-22.58952 -39.3174,-55.03321 -57.23566,-93.08616 -3.34258,-7.09878 -30.29181,-68.89016 -31.31795,-71.80867 -1.47245,-4.18751 -3.41622,-7.21969 -6.97063,-10.87359 -5.9691,-6.13625 -13.52976,-9.62156 -24.27168,-11.18874 -8.46593,-1.23507 -19.27115,0.65472 -27.24712,4.76444 -7.43854,3.83315 -13.0608,10.06559 -15.60437,17.29789 -1.11292,3.16447 -27.7474,64.28655 -31.22861,71.6649 -21.74975,46.09843 -45.93366,83.19465 -68.70124,105.38224 -10.12402,9.86627 -19.8552,16.93381 -27.54523,20.0056 -1.28439,0.51302 -4.4216,1.97657 -6.9716,3.25229 -31.49082,15.75387 -69.70244,24.97846 -112.12564,27.06786 -6.59092,0.32478 -21.13955,0.55336 -26.85526,0.42304 z m 19.99549,-30.77163 c 36.70043,-1.58032 64.11186,-6.60872 87.68275,-16.08475 18.27004,-7.34504 34.88748,-18.31761 47.37326,-31.28071 26.9785,-28.01002 47.08349,-73.82702 56.99832,-129.89247 3.77843,-21.36583 5.30783,-37.04068 4.4207,-45.3077 -1.26564,-11.79475 -5.27833,-21.23851 -12.55401,-29.54566 -17.66778,-20.17265 -56.28796,-34.00622 -117.51263,-42.09266 -40.71502,-5.37748 -72.08991,-6.44623 -116.03223,-3.9523 -20.4288,1.15935 -50.09239,3.93741 -65.53268,6.13697 -19.9771,2.846 -34.92472,7.90346 -46.90861,15.87137 -7.32727,4.8718 -14.21729,11.41743 -18.04766,17.14564 -6.83685,10.22435 -10.8047,24.23479 -12.59248,44.46401 -0.48116,5.44461 -0.48396,24.83511 -0.004,31.23376 1.60481,21.41661 4.75274,41.14016 9.81772,61.51347 11.12643,44.75486 27.84843,79.33068 44.49582,92.00334 8.98852,6.84237 21.38447,13.39648 33.89423,17.92117 27.4685,9.93495 60.98197,13.74048 104.50199,11.86652 z m 612.98424,0.29892 c 32.0687,-1.03793 56.4363,-5.52756 78.3927,-14.44361 10.65,-4.32476 22.0234,-10.78919 29.2577,-16.62942 24.9715,-20.15961 49.6204,-92.09457 53.2018,-155.26314 0.3765,-6.63923 0.3765,-20.67139 -2e-4,-26.16605 -1.1118,-16.22542 -3.834,-28.85712 -8.4196,-39.06989 -2.6308,-5.85895 -5.7352,-10.32799 -10.4791,-15.08509 -13.4559,-13.49339 -30.6047,-21.23023 -55.971,-25.25204 -10.9975,-1.74364 -37.5529,-4.44742 -57.0675,-5.81044 -42.79306,-2.98894 -74.02712,-2.69623 -108.88055,1.02087 -77.25441,8.23817 -122.7337,24.23417 -139.79391,49.16836 -4.49842,6.57469 -7.09619,13.34838 -8.39631,21.89291 -0.74367,4.88484 -0.67127,14.23272 0.16445,21.30905 7.99149,67.68715 28.68057,121.79445 59.21234,154.85552 10.86986,11.77043 25.91658,22.56821 41.52503,29.79917 26.4689,12.26235 58.45129,18.38019 102.75064,19.65508 11.53338,0.33201 14.76001,0.33408 24.50372,0.0207 z"
           id="path39" />
      </g>
      <g
         aria-label="HARTWELL WEB DESIGN"
         id="text2399"
         style="font-size:104.069px;line-height:1.25;stroke-width:0.264583">
        <path
           d="M 143.3091,743.40796 H 125.57468 V 712.51247 H 99.303358 v 30.89549 H 81.467314 V 669.4214 h 17.836044 v 29.37104 H 125.57468 V 669.4214 h 17.73442 z"
           style="font-weight:900;font-family:Roboto;-inkscape-font-specification:'Roboto Heavy'"
           id="path17636" />
        <path
           d="m 197.52864,729.58629 h -24.44199 l -4.26845,13.82167 h -19.05561 l 27.13518,-73.98656 h 16.76893 l 27.33844,73.98656 h -19.15723 z m -20.17353,-13.77084 h 15.90507 l -7.97794,-25.66155 z"
           style="font-weight:900;font-family:Roboto;-inkscape-font-specification:'Roboto Heavy'"
           id="path17638" />
        <path
           d="m 253.88241,717.28908 h -9.65484 v 26.11888 H 226.39152 V 669.4214 h 29.11696 q 13.16107,0 20.58006,5.84372 7.41898,5.84372 7.41898,16.51486 0,7.72387 -3.15053,12.80536 -3.09971,5.0815 -9.75647,8.23202 l 15.44774,29.82837 v 0.76223 h -19.10641 z m -9.65484,-13.77085 h 11.28091 q 5.0815,0 7.62225,-2.64238 2.59156,-2.69319 2.59156,-7.46979 0,-4.77661 -2.59156,-7.4698 -2.59157,-2.74401 -7.62225,-2.74401 h -11.28091 z"
           style="font-weight:900;font-family:Roboto;-inkscape-font-specification:'Roboto Heavy'"
           id="path17640" />
        <path
           d="m 349.82101,683.19225 h -22.20613 v 60.21571 H 309.77883 V 683.19225 H 287.97922 V 669.4214 h 61.84179 z"
           style="font-weight:900;font-family:Roboto;-inkscape-font-specification:'Roboto Heavy'"
           id="path17642" />
        <path
           d="m 415.4231,715.81545 8.4861,-46.39405 h 17.6836 l -15.70182,73.98656 h -18.49664 l -9.90891,-42.1764 -9.70565,42.1764 H 369.33395 L 353.58132,669.4214 h 17.73441 l 8.4861,46.39405 10.16299,-46.39405 h 15.14285 z"
           style="font-weight:900;font-family:Roboto;-inkscape-font-specification:'Roboto Heavy'"
           id="path17644" />
        <path
           d="m 494.44033,712.05514 h -28.04984 v 17.63278 h 33.13134 v 13.72004 H 448.55444 V 669.4214 h 51.06902 v 13.77085 h -33.23297 v 15.60019 h 28.04984 z"
           style="font-weight:900;font-family:Roboto;-inkscape-font-specification:'Roboto Heavy'"
           id="path17646" />
        <path
           d="m 524.6244,729.68792 h 31.04793 v 13.72004 H 506.78836 V 669.4214 h 17.83604 z"
           style="font-weight:900;font-family:Roboto;-inkscape-font-specification:'Roboto Heavy'"
           id="path17648" />
        <path
           d="m 581.02901,729.68792 h 31.04792 v 13.72004 H 563.19296 V 669.4214 h 17.83605 z"
           style="font-weight:900;font-family:Roboto;-inkscape-font-specification:'Roboto Heavy'"
           id="path17650" />
        <path
           d="m 702.83241,715.81545 8.48609,-46.39405 h 17.6836 l -15.70182,73.98656 h -18.49664 l -9.90891,-42.1764 -9.70565,42.1764 H 656.74325 L 640.99062,669.4214 h 17.73442 l 8.48609,46.39405 10.16299,-46.39405 h 15.14285 z"
           style="font-weight:900;font-family:Roboto;-inkscape-font-specification:'Roboto Heavy'"
           id="path17652" />
        <path
           d="m 781.84967,712.05514 h -28.04985 v 17.63278 h 33.13134 v 13.72004 H 735.96377 V 669.4214 h 51.06902 v 13.77085 h -33.23297 v 15.60019 h 28.04985 z"
           style="font-weight:900;font-family:Roboto;-inkscape-font-specification:'Roboto Heavy'"
           id="path17654" />
        <path
           d="M 794.19772,743.40796 V 669.4214 h 26.57622 q 14.27899,0 21.69798,5.23394 7.46979,5.23394 7.46979,15.19367 0,5.74209 -2.64237,9.80728 -2.64238,4.0652 -7.77469,5.99617 5.7929,1.52445 8.89261,5.69127 3.09972,4.16683 3.09972,10.16299 0,10.8744 -6.91084,16.36241 -6.86001,5.4372 -20.37679,5.53883 z m 17.83605,-31.45445 v 17.73441 h 11.68743 q 4.82742,0 7.41898,-2.18504 2.59157,-2.23586 2.59157,-6.25024 0,-9.24831 -9.19751,-9.29913 z m 0,-11.68744 h 9.29913 q 5.84372,-0.0508 8.33365,-2.13422 2.48993,-2.08342 2.48993,-6.14861 0,-4.67498 -2.69319,-6.70757 -2.69319,-2.08342 -8.68935,-2.08342 h -8.74017 z"
           style="font-weight:900;font-family:Roboto;-inkscape-font-specification:'Roboto Heavy'"
           id="path17656" />
        <path
           d="M 887.23984,743.40796 V 669.4214 h 23.8322 q 9.80729,0 17.63279,4.47172 7.8255,4.4209 12.19558,12.55129 4.4209,8.07958 4.47172,18.14093 v 3.4046 q 0,10.16299 -4.31927,18.24257 -4.26846,8.02876 -12.09396,12.6021 -7.77468,4.52253 -17.37871,4.57335 z m 17.83604,-60.21571 v 46.49567 h 6.19942 q 7.67306,0 11.78907,-5.43719 4.11601,-5.48802 4.11601,-16.26079 v -3.20134 q 0,-10.72195 -4.11601,-16.15915 -4.11601,-5.4372 -11.99233,-5.4372 z"
           style="font-weight:900;font-family:Roboto;-inkscape-font-specification:'Roboto Heavy'"
           id="path17658" />
        <path
           d="m 1000.4047,712.05514 h -28.04983 v 17.63278 h 33.13133 v 13.72004 H 954.51883 V 669.4214 h 51.06897 v 13.77085 h -33.23293 v 15.60019 h 28.04983 z"
           style="font-weight:900;font-family:Roboto;-inkscape-font-specification:'Roboto Heavy'"
           id="path17660" />
        <path
           d="m 1050.9148,723.74258 q 0,-3.91275 -2.7948,-6.0978 -2.744,-2.18504 -9.7057,-4.52253 -6.9616,-2.33748 -11.3825,-4.52253 -14.3807,-7.06327 -14.3807,-19.4113 0,-6.14861 3.5571,-10.82359 3.6079,-4.72579 10.163,-7.31735 6.5551,-2.64237 14.7363,-2.64237 7.978,0 14.279,2.84563 6.3519,2.84564 9.8581,8.13039 3.5062,5.23394 3.5062,11.99233 h -17.7852 q 0,-4.52253 -2.7948,-7.01246 -2.744,-2.48994 -7.4698,-2.48994 -4.7766,0 -7.5714,2.13423 -2.744,2.08341 -2.744,5.33557 0,2.84564 3.0489,5.18313 3.0489,2.28667 10.7219,4.7766 7.6731,2.43912 12.6021,5.28475 11.9923,6.91084 11.9923,19.05561 0,9.70565 -7.3173,15.24448 -7.3174,5.53883 -20.0719,5.53883 -8.9943,0 -16.3116,-3.20134 -7.2665,-3.25216 -10.976,-8.8418 -3.6587,-5.64046 -3.6587,-12.95781 h 17.8868 q 0,5.94534 3.0489,8.79098 3.0998,2.79482 10.0106,2.79482 4.4209,0 6.9616,-1.88015 2.5916,-1.93097 2.5916,-5.38638 z"
           style="font-weight:900;font-family:Roboto;-inkscape-font-specification:'Roboto Heavy'"
           id="path17662" />
        <path
           d="M 1096.9023,743.40796 H 1079.117 V 669.4214 h 17.7853 z"
           style="font-weight:900;font-family:Roboto;-inkscape-font-specification:'Roboto Heavy'"
           id="path17664" />
        <path
           d="m 1169.8726,734.26127 q -4.116,4.57334 -12.0432,7.36817 -7.9271,2.79482 -17.3787,2.79482 -14.533,0 -23.2224,-8.89262 -8.6893,-8.89261 -9.2991,-24.74687 l -0.051,-6.40269 q 0,-10.92521 3.8619,-19.0556 3.8619,-8.1812 11.0268,-12.55129 7.2158,-4.4209 16.6673,-4.4209 13.8217,0 21.4439,6.35187 7.6731,6.30105 8.9435,18.85234 h -17.1755 q -0.9146,-6.19942 -3.9635,-8.8418 -3.0489,-2.64238 -8.6386,-2.64238 -6.7076,0 -10.3662,5.69128 -3.6587,5.69127 -3.7095,16.26078 v 4.47171 q 0,11.07766 3.7603,16.6673 3.8111,5.53883 11.9415,5.53883 6.9616,0 10.3662,-3.09971 v -11.48417 h -12.3988 v -12.24641 h 30.2349 z"
           style="font-weight:900;font-family:Roboto;-inkscape-font-specification:'Roboto Heavy'"
           id="path17666" />
        <path
           d="m 1242.0298,743.40796 h -17.7344 l -26.2206,-46.03834 v 46.03834 h -17.836 V 669.4214 h 17.836 l 26.1697,46.03834 V 669.4214 h 17.7853 z"
           style="font-weight:900;font-family:Roboto;-inkscape-font-specification:'Roboto Heavy'"
           id="path17668" />
      </g>
    </g>
    <text
       xml:space="preserve"
       transform="scale(0.26458333)"
       id="text3413"
       style="font-style:normal;font-weight:normal;font-size:666.667px;line-height:1.25;font-family:sans-serif;white-space:pre;shape-inside:url(#rect3415);fill:#000000;fill-opacity:1;stroke:none" />
  </g>
</svg>
